<svg width="113" height="24" viewBox="0 0 113 24" fill="none" xmlns="http://www.w3.org/2000/svg">
<mask id="mask0_50_4625" style="mask-type:luminance" maskUnits="userSpaceOnUse" x="0" y="0" width="24" height="25">
<path d="M0 0H23.533V24.0501H0V0Z" fill="white"/>
</mask>
<g mask="url(#mask0_50_4625)">
<path fill-rule="evenodd" clip-rule="evenodd" d="M9.90228 0.178022C9.94376 0.0154756 10.4415 0.00202364 11.0132 0.148875C11.586 0.295727 12.0165 0.546833 11.9739 0.709379C11.9324 0.871925 11.4347 0.885377 10.863 0.738525C10.2901 0.591673 9.85968 0.340568 9.90228 0.178022ZM5.22663 0.949274C5.19748 0.81139 5.5988 0.61073 6.1223 0.49975C6.64692 0.388771 7.09532 0.411191 7.12334 0.549075C7.15361 0.686959 6.75117 0.88874 6.22767 0.998598C5.70417 1.10958 5.25577 1.08716 5.22663 0.949274ZM19.7715 6.50834C18.3927 6.18437 17.0385 5.19228 16.7202 3.73497C16.6607 3.46705 16.7056 2.97605 16.5699 2.70813C16.2964 2.17341 15.8727 1.81469 15.2976 1.63645C14.727 1.45821 13.9053 1.5535 13.6172 2.14539C13.2249 2.95251 13.939 3.76524 14.6161 4.08473C14.7248 4.13742 14.9423 4.19795 15.2673 4.26969C16.6361 4.569 18.118 5.68889 18.2772 7.17646C18.3164 7.53294 18.3355 7.71231 18.3366 7.71343C18.553 8.74251 19.6941 9.42072 20.7075 9.14607C21.5314 8.92299 21.6682 8.01161 21.2221 7.37937C21.018 7.09127 20.7636 6.86931 20.4598 6.71573C20.3454 6.65856 20.1168 6.58906 19.7715 6.50834ZM16.6047 2.29112C16.7 2.14651 17.1663 2.28888 17.645 2.60612C18.1248 2.92449 18.4353 3.30002 18.34 3.44351C18.2436 3.58812 17.7784 3.44576 17.2986 3.12851C16.8199 2.81014 16.5094 2.43461 16.6047 2.29112ZM13.9132 6.0577C12.8662 5.93103 11.6443 4.98714 12.318 3.79887C12.401 3.6509 12.4492 3.53544 12.4615 3.45248C12.5086 3.11394 12.3707 2.8718 12.049 2.72495C11.6185 2.52765 11.1376 2.48169 10.6085 2.5837C10.0559 2.69132 9.37205 2.98838 9.19045 3.53768C8.98867 4.14526 9.6523 4.48605 10.1881 4.54546C11.4223 4.6811 12.957 5.32344 12.225 6.87491C12.1364 7.06436 12.0905 7.21009 12.0882 7.31323C12.0837 7.56657 12.1981 7.76275 12.4324 7.90063C13.2249 8.36585 14.477 8.14613 15.1272 7.51949C15.5936 7.06773 15.4422 6.47023 14.8346 6.23594C14.551 6.12832 14.2147 6.09357 13.9132 6.0577ZM5.67839 4.22485C5.83308 3.82017 6.39918 3.66099 6.94286 3.86837C7.48655 4.07688 7.80154 4.57237 7.64685 4.97705C7.49215 5.38173 6.92717 5.54204 6.38349 5.33353C5.83981 5.12614 5.52369 4.62954 5.67839 4.22485ZM22.2522 8.07551C22.0964 8.1551 21.759 7.81095 21.4967 7.3065C21.2355 6.80093 21.1492 6.32674 21.3028 6.24603C21.4586 6.16532 21.796 6.50947 22.0583 7.01504C22.3195 7.52061 22.4069 7.9948 22.2522 8.07551ZM16.9365 10.7289C16.3704 10.9139 15.7505 10.5731 15.551 9.96553C15.3514 9.35906 15.6485 8.71561 16.2135 8.52952C16.7796 8.34343 17.3995 8.68534 17.599 9.29292C17.7985 9.89939 17.5015 10.5428 16.9365 10.7289ZM3.54514 15.2757C3.28619 16.4405 4.29396 17.3238 5.43737 17.122C6.16153 16.9954 6.63683 16.5066 6.94398 15.843C7.65021 14.3162 9.40456 13.3173 11.0726 13.7018C11.9212 13.8969 12.6084 14.1648 13.1341 14.8385C13.7495 15.6277 13.9266 16.538 13.6677 17.5693C13.5982 17.8451 13.4043 18.2397 13.346 18.548C13.1823 19.4212 13.6677 20.1958 14.5264 20.3797C15.2853 20.5411 16.0621 20.1936 16.4948 19.558C17.0094 18.8035 16.9018 17.7991 16.1103 17.2812C15.8805 17.1321 15.44 17.0189 15.1788 16.881C13.7776 16.1322 13.2821 14.4439 13.8482 13.0035C13.9659 12.703 14.0343 12.4968 14.0533 12.388C14.2181 11.4273 13.6251 10.6527 12.679 10.5417C11.734 10.4319 11.0121 10.9262 10.6096 11.7928C9.88435 13.3532 8.24321 14.2635 6.53707 14.0112C6.20077 13.9608 5.79385 13.7702 5.4228 13.7758C4.53385 13.7859 3.74019 14.3969 3.54514 15.2757ZM19.6728 12.1661C19.4027 12.0416 19.1774 11.86 18.998 11.6213C18.785 11.3388 18.5776 10.9935 18.3008 10.8556C17.7851 10.5989 17.3546 11.0428 17.2055 11.5439C17.0329 12.1291 17.0497 12.7008 17.256 13.2579C17.2907 13.3521 17.4084 13.5763 17.6113 13.9316C18.3759 15.2701 18.5575 17.0537 17.9308 18.4953C17.8131 18.7665 17.7425 18.9594 17.7178 19.0748C17.599 19.6499 17.6607 20.2115 17.905 20.7619C18.081 21.1621 18.544 21.661 19.0092 21.4827C19.8074 21.179 19.7412 19.7542 19.5294 19.1342C19.4912 19.0221 19.3724 18.7912 19.1729 18.4415C18.2985 16.9079 18.1774 14.9921 19.0821 13.4025C19.5428 12.592 20.4643 12.3432 21.1985 12.9934C21.4429 13.2108 21.6581 13.4552 21.8408 13.7276C22.2579 14.3464 22.9876 14.2747 23.2555 13.574C23.5403 12.8319 23.4539 11.86 22.9843 11.2087C22.7119 10.8309 22.2579 10.5787 21.8577 10.9363C21.796 10.9912 21.6951 11.1392 21.5561 11.3802C21.138 12.101 20.5248 12.5562 19.6728 12.1661ZM1.27289 18.4549C0.626077 18.4841 0.0745494 17.9157 0.0409195 17.1848C0.00841082 16.4539 0.506131 15.8374 1.15182 15.8082C1.79976 15.7791 2.35016 16.3474 2.38379 17.0783C2.4163 17.8092 1.9197 18.4258 1.27289 18.4549ZM21.3779 18.0345C21.2265 17.9718 21.2949 17.4662 21.5314 16.9057C21.768 16.3463 22.083 15.9439 22.2332 16.0078C22.3845 16.0716 22.3161 16.5772 22.0785 17.1366C21.8431 17.6971 21.5281 18.0984 21.3779 18.0345ZM8.37549 18.8932C8.4988 18.298 9.15458 17.9303 9.83951 18.0726C10.5256 18.215 10.9807 18.8125 10.8574 19.4078C10.7352 20.003 10.0794 20.3707 9.39335 20.2283C8.70843 20.0871 8.25218 19.4896 8.37549 18.8932ZM15.2326 22.7405C14.9165 22.5062 14.921 21.9625 15.2449 21.5253C15.5678 21.0893 16.0868 20.9245 16.4029 21.1599C16.7202 21.3942 16.7157 21.9379 16.3917 22.3739C16.0689 22.8111 15.5498 22.9759 15.2326 22.7405ZM17.1966 23.8402C17.0867 23.7203 17.3356 23.3145 17.7526 22.9378C18.1696 22.56 18.5956 22.3515 18.7066 22.4715C18.8164 22.5925 18.5664 22.9983 18.1505 23.375C17.7335 23.7528 17.3064 23.9613 17.1966 23.8402Z" fill="#3E14B4"/>
</g>
<path d="M31.7433 17.7862H28.7822V6.26758H37.9169V8.56757H31.7433V11.2866H36.5947V13.5866H31.7433V17.7862Z" fill="#3E14B4"/>
<path d="M42.7686 9.39889V17.7888H39.8913V11.6151H38.6528V9.39889H42.7686ZM39.8913 6.10254H42.7686V8.41185H39.8913V6.10254Z" fill="#3E14B4"/>
<path d="M49.5085 11.3067C48.9242 11.3067 48.2654 11.4161 47.5345 11.6326V17.8062H44.6479V9.08115H47.1992L47.3668 9.90989C47.8813 9.57002 48.4097 9.32093 48.9498 9.16496C49.4945 9.00433 49.9555 8.92285 50.3279 8.92285H51.0636C51.8131 8.92285 52.4137 9.15099 52.8607 9.60261C53.3123 10.0496 53.5404 10.6455 53.5404 11.3905V17.8062H50.6538V11.884C50.6538 11.7164 50.598 11.5813 50.4862 11.4743C50.3791 11.3625 50.2441 11.3067 50.0765 11.3067H49.5085Z" fill="#3E14B4"/>
<path d="M55.4246 6.26758H62.3338C63.4884 6.26758 64.3265 6.52831 64.8479 7.04976C65.3694 7.57122 65.6301 8.40927 65.6301 9.56393V11.2028C65.6301 12.3574 65.3694 13.1955 64.8479 13.717C64.3265 14.2384 63.4884 14.4991 62.3338 14.4991H58.3856V17.7862H55.4246V6.26758ZM62.6597 9.56393C62.6597 8.90047 62.3291 8.56757 61.6726 8.56757H58.3856V12.1898H61.6726C62.3291 12.1898 62.6597 11.8616 62.6597 11.2028V9.56393Z" fill="#3E14B4"/>
<path d="M72.2049 11.4743C71.5158 11.4743 70.8035 11.6395 70.0725 11.9678V17.8062H67.1859V9.08115H69.7373L69.9049 10.152C70.8477 9.33257 71.8348 8.92285 72.866 8.92285H73.6016V11.4743H72.2049Z" fill="#3E14B4"/>
<path d="M83.8861 15.3386C83.8861 16.1581 83.6486 16.8052 83.1784 17.2755C82.7128 17.7411 82.0703 17.9738 81.2509 17.9738H77.461C76.6416 17.9738 75.9991 17.7411 75.5335 17.2755C75.068 16.8052 74.8352 16.1581 74.8352 15.3386V11.5581C74.8352 10.734 75.068 10.0868 75.5335 9.62123C75.9991 9.15564 76.6416 8.92285 77.461 8.92285H81.2509C82.0703 8.92285 82.7128 9.15564 83.1784 9.62123C83.6486 10.0868 83.8861 10.734 83.8861 11.5581V15.3386ZM80.9995 11.8002C80.9995 11.3602 80.7806 11.139 80.3476 11.139H78.3736C77.9313 11.139 77.7125 11.3602 77.7125 11.8002V15.0872C77.7125 15.5295 77.9313 15.7483 78.3736 15.7483H80.3476C80.7806 15.7483 80.9995 15.5295 80.9995 15.0872V11.8002Z" fill="#3E14B4"/>
<path d="M92.686 8.49565C92.3694 8.47237 91.9457 8.43745 91.4196 8.39322C90.8912 8.35132 90.4349 8.32804 90.0508 8.32804C89.6713 8.32804 89.4269 8.38391 89.3152 8.49565C89.2034 8.60274 89.1476 8.73776 89.1476 8.90537V9.7248H91.8665V11.9503H89.1476V17.7888H86.2703V11.9503H85.1156V9.7248H86.2703V8.57015C86.2703 7.82521 86.4937 7.22926 86.9407 6.78229C87.3923 6.33068 87.9929 6.10254 88.7378 6.10254C89.4083 6.10254 90.116 6.12815 90.8609 6.17703C91.6058 6.22126 92.2134 6.25153 92.686 6.27015V8.49565Z" fill="#3E14B4"/>
<path d="M96.8649 9.39889V17.7888H93.9876V11.6151H92.7491V9.39889H96.8649ZM93.9876 6.10254H96.8649V8.41185H93.9876V6.10254Z" fill="#3E14B4"/>
<path d="M103.201 17.7862C102.468 17.8979 101.77 17.9538 101.106 17.9538C100.44 17.9538 99.8817 17.7303 99.4301 17.2833C98.9831 16.8317 98.7596 16.2311 98.7596 15.4862V6.26758H101.646V15.0672C101.646 15.2348 101.697 15.3744 101.805 15.4862C101.916 15.5933 102.051 15.6445 102.214 15.6445H103.201V17.7862Z" fill="#3E14B4"/>
<path d="M107.97 10.9807C107.528 10.9807 107.309 11.1996 107.309 11.6326V12.5451H110.102V11.6326C110.102 11.1996 109.884 10.9807 109.451 10.9807H107.97ZM112.654 17.6386C110.535 17.8621 108.617 17.9738 106.899 17.9738C106.154 17.9738 105.554 17.7504 105.102 17.3034C104.655 16.8518 104.432 16.2512 104.432 15.5062V11.5581C104.432 10.734 104.664 10.0868 105.13 9.62123C105.596 9.15564 106.238 8.92285 107.058 8.92285H110.354C111.173 8.92285 111.816 9.15564 112.281 9.62123C112.752 10.0868 112.989 10.734 112.989 11.5581V14.5937H107.309V15.2548C107.309 15.4224 107.36 15.5621 107.467 15.6739C107.579 15.7809 107.719 15.8321 107.886 15.8321C108.971 15.8321 110.561 15.7483 112.654 15.5807V17.6386Z" fill="#3E14B4"/>
</svg>
