<svg preserveAspectRatio="none" width="100%" height="100%" overflow="visible" style="display: block;" viewBox="0 0 73.7893 35.4825" fill="none" xmlns="http://www.w3.org/2000/svg">
<g id="Group 2117917860">
<g id="Union" filter="url(#filter0_n_75_457)">
<path d="M19.5575 17.0073C30.3589 17.0073 39.1151 19.1964 39.1151 21.8967C39.1151 24.8072 39.1151 25.9711 39.1151 28.8815C39.1151 31.5819 30.3589 33.7709 19.5575 33.7709C8.75621 33.7709 0 31.5819 0 28.8815C0 25.9712 0 24.8071 0 21.8967C0 19.1964 8.75621 17.0073 19.5575 17.0073Z" fill="url(#paint0_linear_75_457)"/>
</g>
<ellipse id="Ellipse 1134" cx="19.5575" cy="21.8967" rx="19.5575" ry="4.88939" fill="var(--fill-0, #91F2C0)"/>
<g id="Union_2" filter="url(#filter1_n_75_457)">
<path d="M19.5575 8.50391C30.3589 8.50391 39.1151 10.693 39.1151 13.3933C39.1151 16.3038 39.1151 17.4676 39.1151 20.3781C39.1151 23.0785 30.3589 25.2675 19.5575 25.2675C8.75621 25.2675 0 23.0785 0 20.3781C0 17.4678 0 16.3036 0 13.3933C0 10.693 8.75621 8.50391 19.5575 8.50391Z" fill="url(#paint1_linear_75_457)"/>
</g>
<ellipse id="Ellipse 1135" cx="19.5575" cy="13.3933" rx="19.5575" ry="4.88939" fill="var(--fill-0, #91F2C0)"/>
<g id="Group 2117917951">
<g id="Union_3" filter="url(#filter2_n_75_457)">
<path d="M19.5588 0C30.3602 0 39.1164 2.18905 39.1164 4.88939C39.1164 7.79988 39.1164 8.96374 39.1164 11.8742C39.1164 14.5746 30.3602 16.7636 19.5588 16.7636C8.75751 16.7636 0.00130212 14.5746 0.00130212 11.8742C0.00130212 8.96388 0.00130212 7.79973 0.00130212 4.88939C0.00130212 2.18905 8.75751 0 19.5588 0Z" fill="url(#paint2_linear_75_457)"/>
</g>
<ellipse id="Ellipse 1136" cx="19.5588" cy="4.88939" rx="19.5575" ry="4.88939" fill="var(--fill-0, #91F2C0)"/>
<path id="Ellipse 1137" d="M19.5586 2.08366C23.3325 2.08366 26.7359 2.45415 29.1836 3.04753C30.4104 3.34495 31.3737 3.69345 32.0205 4.06413C32.6987 4.45284 32.8914 4.78401 32.8916 4.99967C32.8916 5.21533 32.699 5.54729 32.0205 5.9362C31.3737 6.30683 30.4102 6.65443 29.1836 6.95182C26.7359 7.54519 23.3325 7.91667 19.5586 7.91667C15.7847 7.91667 12.3813 7.54519 9.93359 6.95182C8.70696 6.65443 7.74347 6.30683 7.09668 5.9362C6.41814 5.54729 6.22559 5.21533 6.22559 4.99967C6.22578 4.78401 6.41849 4.45284 7.09668 4.06413C7.7435 3.69345 8.7068 3.34495 9.93359 3.04753C12.3813 2.45415 15.7847 2.08366 19.5586 2.08366Z" stroke="var(--stroke-0, #D3FFE8)" stroke-width="0.833333"/>
</g>
<g id="Group 2117917952">
<g id="Union_4" filter="url(#filter3_n_75_457)">
<path d="M54.8983 14.2282C65.3316 17.0238 73.2229 21.4045 72.524 24.0129C71.7707 26.8242 71.4695 27.9484 70.7162 30.7597C70.0173 33.368 60.9928 33.2162 50.5596 30.4206C40.1263 27.625 32.235 23.2443 32.9339 20.636C33.6871 17.8248 33.9884 16.7003 34.7417 13.8891C35.4406 11.2808 44.465 11.4326 54.8983 14.2282Z" fill="url(#paint3_linear_75_457)"/>
</g>
<ellipse id="Ellipse 1136_2" cx="53.6328" cy="18.951" rx="19.5575" ry="4.88939" transform="rotate(15 53.6328 18.951)" fill="var(--fill-0, #91F2C0)"/>
<path id="Ellipse 1137_2" d="M54.3581 16.2407C58.0034 17.2174 61.195 18.4562 63.4057 19.6628C64.5137 20.2676 65.354 20.8536 65.8828 21.379C66.4373 21.93 66.5377 22.2998 66.4821 22.5082C66.4263 22.7165 66.1544 22.9873 65.3983 23.1873C64.6776 23.3779 63.657 23.4643 62.3952 23.4341C59.8774 23.3738 56.4937 22.8517 52.8484 21.8749C49.2031 20.8982 46.0118 19.6585 43.8011 18.4518C42.6932 17.8471 41.8526 17.262 41.3237 16.7366C40.769 16.1853 40.6689 15.8148 40.7247 15.6065C40.7807 15.3982 41.0526 15.1282 41.8083 14.9283C42.529 14.7376 43.5496 14.6503 44.8116 14.6806C47.3295 14.7409 50.7128 15.2639 54.3581 16.2407Z" stroke="var(--stroke-0, #D3FFE8)" stroke-width="0.833333"/>
</g>
</g>
<defs>
<filter id="filter0_n_75_457" x="0" y="17.0073" width="39.1151" height="16.7636" filterUnits="userSpaceOnUse" color-interpolation-filters="sRGB">
<feFlood flood-opacity="0" result="BackgroundImageFix"/>
<feBlend mode="normal" in="SourceGraphic" in2="BackgroundImageFix" result="shape"/>
<feTurbulence type="fractalNoise" baseFrequency="0.5868602991104126 0.5868602991104126" stitchTiles="stitch" numOctaves="3" result="noise" seed="5837" />
<feColorMatrix in="noise" type="luminanceToAlpha" result="alphaNoise" />
<feComponentTransfer in="alphaNoise" result="coloredNoise1">
<feFuncA type="discrete" tableValues="0 0 0 0 0 0 0 0 0 0 1 1 1 1 1 1 1 1 1 1 1 1 1 1 1 1 1 1 1 1 1 1 1 1 1 1 1 1 1 1 0 0 0 0 0 0 0 0 0 0 0 0 0 0 0 0 0 0 0 0 0 0 0 0 0 0 0 0 0 0 0 0 0 0 0 0 0 0 0 0 0 0 0 0 0 0 0 0 0 0 0 0 0 0 0 0 0 0 0 0 "/>
</feComponentTransfer>
<feComposite operator="in" in2="shape" in="coloredNoise1" result="noise1Clipped" />
<feComponentTransfer in="alphaNoise" result="coloredNoise2">
<feFuncA type="discrete" tableValues="0 0 0 0 0 0 0 0 0 0 0 0 0 0 0 0 0 0 0 0 0 0 0 0 0 0 0 0 0 0 0 0 0 0 0 0 0 0 0 0 0 0 0 0 0 0 0 0 0 0 0 0 0 0 0 0 0 0 0 0 1 1 1 1 1 1 1 1 1 1 1 1 1 1 1 1 1 1 1 1 1 1 1 1 1 1 1 1 1 1 0 0 0 0 0 0 0 0 0 0 "/>
</feComponentTransfer>
<feComposite operator="in" in2="shape" in="coloredNoise2" result="noise2Clipped" />
<feFlood flood-color="rgba(136, 148, 255, 0.25)" result="color1Flood" />
<feComposite operator="in" in2="noise1Clipped" in="color1Flood" result="color1" />
<feFlood flood-color="rgba(255, 255, 255, 0.25)" result="color2Flood" />
<feComposite operator="in" in2="noise2Clipped" in="color2Flood" result="color2" />
<feMerge result="effect1_noise_75_457">
<feMergeNode in="shape" />
<feMergeNode in="color1" />
<feMergeNode in="color2" />
</feMerge>
</filter>
<filter id="filter1_n_75_457" x="0" y="8.50391" width="39.1151" height="16.7636" filterUnits="userSpaceOnUse" color-interpolation-filters="sRGB">
<feFlood flood-opacity="0" result="BackgroundImageFix"/>
<feBlend mode="normal" in="SourceGraphic" in2="BackgroundImageFix" result="shape"/>
<feTurbulence type="fractalNoise" baseFrequency="0.5868602991104126 0.5868602991104126" stitchTiles="stitch" numOctaves="3" result="noise" seed="5837" />
<feColorMatrix in="noise" type="luminanceToAlpha" result="alphaNoise" />
<feComponentTransfer in="alphaNoise" result="coloredNoise1">
<feFuncA type="discrete" tableValues="0 0 0 0 0 0 0 0 0 0 1 1 1 1 1 1 1 1 1 1 1 1 1 1 1 1 1 1 1 1 1 1 1 1 1 1 1 1 1 1 0 0 0 0 0 0 0 0 0 0 0 0 0 0 0 0 0 0 0 0 0 0 0 0 0 0 0 0 0 0 0 0 0 0 0 0 0 0 0 0 0 0 0 0 0 0 0 0 0 0 0 0 0 0 0 0 0 0 0 0 "/>
</feComponentTransfer>
<feComposite operator="in" in2="shape" in="coloredNoise1" result="noise1Clipped" />
<feComponentTransfer in="alphaNoise" result="coloredNoise2">
<feFuncA type="discrete" tableValues="0 0 0 0 0 0 0 0 0 0 0 0 0 0 0 0 0 0 0 0 0 0 0 0 0 0 0 0 0 0 0 0 0 0 0 0 0 0 0 0 0 0 0 0 0 0 0 0 0 0 0 0 0 0 0 0 0 0 0 0 1 1 1 1 1 1 1 1 1 1 1 1 1 1 1 1 1 1 1 1 1 1 1 1 1 1 1 1 1 1 0 0 0 0 0 0 0 0 0 0 "/>
</feComponentTransfer>
<feComposite operator="in" in2="shape" in="coloredNoise2" result="noise2Clipped" />
<feFlood flood-color="rgba(136, 148, 255, 0.25)" result="color1Flood" />
<feComposite operator="in" in2="noise1Clipped" in="color1Flood" result="color1" />
<feFlood flood-color="rgba(255, 255, 255, 0.25)" result="color2Flood" />
<feComposite operator="in" in2="noise2Clipped" in="color2Flood" result="color2" />
<feMerge result="effect1_noise_75_457">
<feMergeNode in="shape" />
<feMergeNode in="color1" />
<feMergeNode in="color2" />
</feMerge>
</filter>
<filter id="filter2_n_75_457" x="0.00130212" y="0" width="39.1151" height="16.7636" filterUnits="userSpaceOnUse" color-interpolation-filters="sRGB">
<feFlood flood-opacity="0" result="BackgroundImageFix"/>
<feBlend mode="normal" in="SourceGraphic" in2="BackgroundImageFix" result="shape"/>
<feTurbulence type="fractalNoise" baseFrequency="0.5868602991104126 0.5868602991104126" stitchTiles="stitch" numOctaves="3" result="noise" seed="5837" />
<feColorMatrix in="noise" type="luminanceToAlpha" result="alphaNoise" />
<feComponentTransfer in="alphaNoise" result="coloredNoise1">
<feFuncA type="discrete" tableValues="0 0 0 0 0 0 0 0 0 0 1 1 1 1 1 1 1 1 1 1 1 1 1 1 1 1 1 1 1 1 1 1 1 1 1 1 1 1 1 1 0 0 0 0 0 0 0 0 0 0 0 0 0 0 0 0 0 0 0 0 0 0 0 0 0 0 0 0 0 0 0 0 0 0 0 0 0 0 0 0 0 0 0 0 0 0 0 0 0 0 0 0 0 0 0 0 0 0 0 0 "/>
</feComponentTransfer>
<feComposite operator="in" in2="shape" in="coloredNoise1" result="noise1Clipped" />
<feComponentTransfer in="alphaNoise" result="coloredNoise2">
<feFuncA type="discrete" tableValues="0 0 0 0 0 0 0 0 0 0 0 0 0 0 0 0 0 0 0 0 0 0 0 0 0 0 0 0 0 0 0 0 0 0 0 0 0 0 0 0 0 0 0 0 0 0 0 0 0 0 0 0 0 0 0 0 0 0 0 0 1 1 1 1 1 1 1 1 1 1 1 1 1 1 1 1 1 1 1 1 1 1 1 1 1 1 1 1 1 1 0 0 0 0 0 0 0 0 0 0 "/>
</feComponentTransfer>
<feComposite operator="in" in2="shape" in="coloredNoise2" result="noise2Clipped" />
<feFlood flood-color="rgba(136, 148, 255, 0.25)" result="color1Flood" />
<feComposite operator="in" in2="noise1Clipped" in="color1Flood" result="color1" />
<feFlood flood-color="rgba(255, 255, 255, 0.25)" result="color2Flood" />
<feComposite operator="in" in2="noise2Clipped" in="color2Flood" result="color2" />
<feMerge result="effect1_noise_75_457">
<feMergeNode in="shape" />
<feMergeNode in="color1" />
<feMergeNode in="color2" />
</feMerge>
</filter>
<filter id="filter3_n_75_457" x="32.8908" y="12.028" width="39.6762" height="20.5928" filterUnits="userSpaceOnUse" color-interpolation-filters="sRGB">
<feFlood flood-opacity="0" result="BackgroundImageFix"/>
<feBlend mode="normal" in="SourceGraphic" in2="BackgroundImageFix" result="shape"/>
<feTurbulence type="fractalNoise" baseFrequency="0.5868602991104126 0.5868602991104126" stitchTiles="stitch" numOctaves="3" result="noise" seed="5837" />
<feColorMatrix in="noise" type="luminanceToAlpha" result="alphaNoise" />
<feComponentTransfer in="alphaNoise" result="coloredNoise1">
<feFuncA type="discrete" tableValues="0 0 0 0 0 0 0 0 0 0 1 1 1 1 1 1 1 1 1 1 1 1 1 1 1 1 1 1 1 1 1 1 1 1 1 1 1 1 1 1 0 0 0 0 0 0 0 0 0 0 0 0 0 0 0 0 0 0 0 0 0 0 0 0 0 0 0 0 0 0 0 0 0 0 0 0 0 0 0 0 0 0 0 0 0 0 0 0 0 0 0 0 0 0 0 0 0 0 0 0 "/>
</feComponentTransfer>
<feComposite operator="in" in2="shape" in="coloredNoise1" result="noise1Clipped" />
<feComponentTransfer in="alphaNoise" result="coloredNoise2">
<feFuncA type="discrete" tableValues="0 0 0 0 0 0 0 0 0 0 0 0 0 0 0 0 0 0 0 0 0 0 0 0 0 0 0 0 0 0 0 0 0 0 0 0 0 0 0 0 0 0 0 0 0 0 0 0 0 0 0 0 0 0 0 0 0 0 0 0 1 1 1 1 1 1 1 1 1 1 1 1 1 1 1 1 1 1 1 1 1 1 1 1 1 1 1 1 1 1 0 0 0 0 0 0 0 0 0 0 "/>
</feComponentTransfer>
<feComposite operator="in" in2="shape" in="coloredNoise2" result="noise2Clipped" />
<feFlood flood-color="rgba(136, 148, 255, 0.25)" result="color1Flood" />
<feComposite operator="in" in2="noise1Clipped" in="color1Flood" result="color1" />
<feFlood flood-color="rgba(255, 255, 255, 0.25)" result="color2Flood" />
<feComposite operator="in" in2="noise2Clipped" in="color2Flood" result="color2" />
<feMerge result="effect1_noise_75_457">
<feMergeNode in="shape" />
<feMergeNode in="color1" />
<feMergeNode in="color2" />
</feMerge>
</filter>
<linearGradient id="paint0_linear_75_457" x1="19.5575" y1="17.0073" x2="19.5575" y2="33.7709" gradientUnits="userSpaceOnUse">
<stop stop-color="#0B2072"/>
<stop offset="1" stop-color="#7D6FFF"/>
</linearGradient>
<linearGradient id="paint1_linear_75_457" x1="19.5575" y1="8.50391" x2="19.5575" y2="25.2675" gradientUnits="userSpaceOnUse">
<stop stop-color="#0B2072"/>
<stop offset="1" stop-color="#7D6FFF"/>
</linearGradient>
<linearGradient id="paint2_linear_75_457" x1="19.5588" y1="0" x2="19.5588" y2="16.7636" gradientUnits="userSpaceOnUse">
<stop stop-color="#0B2072"/>
<stop offset="1" stop-color="#7D6FFF"/>
</linearGradient>
<linearGradient id="paint3_linear_75_457" x1="54.8983" y1="14.2282" x2="50.5596" y2="30.4206" gradientUnits="userSpaceOnUse">
<stop stop-color="#0B2072"/>
<stop offset="1" stop-color="#7D6FFF"/>
</linearGradient>
</defs>
</svg>
